<svg width="16" height="16" viewBox="0 0 20 20" fill="none" xmlns="http://www.w3.org/2000/svg" focusable="false" aria-hidden="true" class="BenefitText_icon_bell_FKI2A"><path d="M4.362 4.133a7.65 7.65 0 00-1.487 4.573l.8-.002a6.85 6.85 0 011.33-4.095l-.643-.476zm10.632.476a6.854 6.854 0 011.33 4.095l.8.002a7.654 7.654 0 00-1.487-4.573l-.643.476z" fill="#6563F0"></path><path fill-rule="evenodd" clip-rule="evenodd" d="M10.002 3.5a5.217 5.217 0 00-5.211 5.211v3.65l-.853 1.535a.553.553 0 00.483.82h2.818a3.02 3.02 0 002.763 1.784 3.02 3.02 0 002.763-1.784h2.816a.553.553 0 00.483-.82l-.853-1.535V8.71l-.001-.141h.002l-.002-.06a5.218 5.218 0 00-5.208-5.01zm4.977 10.31l-.617-1.111a.454.454 0 01-.057-.22V8.71a4.29 4.29 0 00-.179-1.228v-.009a4.313 4.313 0 00-4.124-3.068 4.31 4.31 0 00-4.305 4.305v3.768c0 .076-.02.152-.057.22l-.617 1.11h9.956zm-6.698.906c.39.542 1.024.878 1.721.878.698 0 1.331-.336 1.722-.878H8.281z" fill="#f4361e"></path></svg>