<svg xmlns="http://www.w3.org/2000/svg" width="25" height="25" viewBox="0 0 50 50" fill="none" class="RoundItem_svg_zjf33" data-src="https://im.pstatic.net/selective/category/svg/1649053624457_icon_beauty.svg" xmlns:xlink="http://www.w3.org/1999/xlink" focusable="false" aria-hidden="true">
    <path fill-rule="evenodd" clip-rule="evenodd" d="M10 20.2675V13.9815C10 13.2826 10.3648 12.6344 10.9622 12.2718L14.9622 9.84384C16.2951 9.03482 18 9.99437 18 11.5535V20.2675C18.5978 20.6134 19 21.2597 19 22V39C19 40.1045 18.1046 41 17 41H11C9.89543 41 9 40.1045 9 39V22C9 21.2597 9.4022 20.6134 10 20.2675ZM12 13.9815L16 11.5535L16 20H12V13.9815ZM11 22V25.5625H17V22H11ZM11 27.5625H17V39H11L11 27.5625Z" fill="#929294"></path>
    <path d="M33.2929 22.2929L26.2929 29.2929L27.7071 30.7071L34.7071 23.7071L33.2929 22.2929Z" fill="#929294"></path>
    <path d="M31.2929 30.2929L34.2929 27.2929L35.7071 28.7071L32.7071 31.7071L31.2929 30.2929Z" fill="#929294"></path>
    <path fill-rule="evenodd" clip-rule="evenodd" d="M24 35C22.8954 35 22 35.8954 22 37C22 39.2091 23.7909 41 26 41H37C39.2091 41 41 39.2091 41 37C41 35.8954 40.1046 35 39 35H38.8485C40.7933 33.0942 42 30.438 42 27.5C42 21.701 37.299 17 31.5 17C25.701 17 21 21.701 21 27.5C21 30.438 22.2067 33.0942 24.1515 35H24ZM37 39C38.1046 39 39 38.1045 39 37H24C24 38.1045 24.8954 39 26 39H37ZM27.4964 35C26.9695 34.7181 26.4757 34.3823 26.0225 34C24.245 32.5006 23.0911 30.2853 23.0051 27.7988C23.0017 27.6996 23 27.6 23 27.5C23 22.8056 26.8056 19 31.5 19C36.1944 19 40 22.8056 40 27.5C40 27.6325 39.997 27.7644 39.991 27.8955C39.8789 30.3427 38.7319 32.52 36.9775 34C36.5243 34.3823 36.0305 34.7181 35.5036 35H27.4964Z" fill="#929294"></path>
</svg>